Coordinates
version=1
nRows=19
nColumns=24
inDegrees=yes

Units are S.I. units (second, meters, Newtons, ...)
Angles are in degrees.

endheader
time	pelvis_tilt	pelvis_list	pelvis_rotation	pelvis_tx	pelvis_ty	pelvis_tz	hip_flexion_r	hip_adduction_r	hip_rotation_r	knee_angle_r	ankle_angle_r	subtalar_angle_r	mtp_angle_r	hip_flexion_l	hip_adduction_l	hip_rotation_l	knee_angle_l	ankle_angle_l	subtalar_angle_l	mtp_angle_l	lumbar_extension	lumbar_bending	lumbar_rotation
      4.89500000	     -9.14830728	     -2.15783584	     10.26827026	     -1.68712691	     -0.01796929	     -0.30189433	     31.31535157	     -1.43948967	     -8.24455168	     -8.00814898	     13.20797555	     14.28863086	    -38.29867799	     -4.28690492	     -0.02415614	     18.95458514	    -15.76355126	      4.40864569	      2.65131641	     18.21114376	      5.15975357	      0.05966547	    -10.54649953
      4.90000000	     -9.22568064	     -2.29773269	     10.33418553	     -1.68059758	     -0.01876628	     -0.30137146	     31.39575477	     -1.30566033	     -8.54580750	     -8.65138116	     12.92532036	     14.38963995	    -38.26507085	     -4.27625696	     -0.25395000	     18.63962099	    -16.32750228	      4.28091311	      3.36648362	     18.59583144	      5.44718231	      0.20280172	    -10.56344869
      4.90500000	     -9.32263809	     -2.47520883	     10.37463874	     -1.67406187	     -0.01954228	     -0.30081326	     31.50989504	     -1.12633566	     -8.80281127	     -9.29412526	     12.54897847	     14.43995760	    -38.17351717	     -4.21512328	     -0.52129308	     18.27095189	    -16.92085524	      4.09364629	      4.09569292	     19.11307866	      5.76281702	      0.38834428	    -10.54815986
      4.91000000	     -9.43453569	     -2.70690310	     10.37594859	     -1.66751869	     -0.02026399	     -0.30020769	     31.65061533	     -0.87418344	     -9.00247371	     -9.91731091	     12.06337492	     14.43364985	    -38.03618659	     -4.10821664	     -0.84502300	     17.84065138	    -17.54171277	      3.85575689	      4.84613769	     19.72524651	      6.10484845	      0.63650470	    -10.51781421
      4.91500000	     -9.55618848	     -2.94809093	     10.36314463	     -1.66100480	     -0.02090539	     -0.29953727	     31.80657805	     -0.59407806	     -9.06594014	    -10.52729520	     11.50258639	     14.30872662	    -37.76426558	     -3.94793167	     -1.18642979	     17.27617868	    -18.19894757	      3.48035712	      5.63502313	     20.53142568	      6.45424300	      0.88771333	    -10.49861932
      4.92000000	     -9.66664513	     -3.28078893	     10.32747479	     -1.65450300	     -0.02146948	     -0.29887056	     31.96640019	     -0.20757055	     -9.08389880	    -11.12906386	     10.92061660	     14.14077301	    -37.54564750	     -3.75911713	     -1.62068719	     16.76827899	    -18.91321651	      3.13525293	      6.42596883	     21.27192248	      6.80492891	      1.25436114	    -10.38330259
      4.92500000	     -9.79255091	     -3.61372977	     10.23967892	     -1.64803723	     -0.02192806	     -0.29809993	     32.15362736	      0.22332089	     -8.92208042	    -11.72939848	     10.27379394	     13.85511729	    -37.28609897	     -3.51941509	     -2.06615190	     16.08706134	    -19.65398234	      2.64013745	      7.28491986	     22.16753075	      7.16328248	      1.61507354	    -10.32665669
      4.93000000	     -9.90194682	     -4.01486988	     10.14287467	     -1.64158172	     -0.02230891	     -0.29735694	     32.34046163	      0.73586863	     -8.71551065	    -12.34954614	      9.68131297	     13.51922984	    -37.11710497	     -3.24814230	     -2.58245475	     15.43889021	    -20.47012165	      2.14356512	      8.14555256	     23.01976380	      7.51395554	      2.06907757	    -10.16976339
      4.93500000	    -10.01101915	     -4.40962229	     10.01491112	     -1.63514886	     -0.02257360	     -0.29654819	     32.52912205	      1.28096202	     -8.34822551	    -12.97462254	      9.09378026	     13.06913589	    -37.01533642	     -2.93931194	     -3.10838350	     14.66264281	    -21.32492319	      1.49971833	      9.07557112	     23.97729396	      7.85627610	      2.51270793	    -10.04285449
      4.94000000	    -10.11992982	     -4.79974591	      9.83129756	     -1.62862210	     -0.02274137	     -0.29569252	     32.69356980	      1.88558673	     -7.69046220	    -13.57176507	      8.46989748	     12.41121459	    -36.79687837	     -2.65079054	     -3.63754284	     13.86553640	    -22.09115831	      0.41415296	      9.68474827	     25.77666402	      8.20831335	      2.96605337	     -9.88280394
      4.94500000	    -10.16151658	     -5.21793068	      9.71118957	     -1.62217870	     -0.02278474	     -0.29494540	     32.81921735	      2.47109266	     -7.36734736	    -14.24364425	      8.09543300	     12.03266845	    -36.90540312	     -2.32292189	     -4.22362690	     13.01779436	    -23.08980124	     -0.29687308	     10.85955340	     26.46557383	      8.48148521	      3.45455154	     -9.78104457
      4.95000000	    -10.24213581	     -5.61000494	      9.50163635	     -1.61558125	     -0.02280278	     -0.29403700	     32.93332741	      3.13774919	     -6.53551085	    -14.84776299	      7.73788709	     11.22600948	    -37.29934896	     -1.99247340	     -4.79318643	     12.10370457	    -23.97647100	     -1.50544709	     11.64863810	     28.05726681	      8.80928000	      3.91381942	     -9.62601170
      4.95500000	    -10.26709404	     -5.99748621	      9.32876789	     -1.60902225	     -0.02271303	     -0.29320333	     32.98868719	      3.77929316	     -5.90380396	    -15.47221204	      7.53630565	     10.58328348	    -37.85215975	     -1.65342548	     -5.38638681	     11.15948294	    -24.97644557	     -2.69059485	     12.65783017	     29.34609134	      9.06696467	      4.37886272	     -9.49104914
      4.96000000	    -10.25777139	     -6.32512279	      9.17137304	     -1.60256779	     -0.02254536	     -0.29235557	     32.99010105	      4.37577088	     -5.24089700	    -16.08494132	      7.38871043	      9.90516891	    -38.45392287	     -1.30289471	     -5.93543043	     10.23650014	    -26.05680106	     -3.94790617	     13.74465023	     30.45668392	      9.25150134	      4.77904870	     -9.35641740
      4.96500000	    -10.21020926	     -6.65226913	      8.96441926	     -1.59586234	     -0.02226905	     -0.29153344	     32.89792223	      5.00397908	     -4.64135410	    -16.64877719	      7.49723673	      9.32963961	    -39.60441701	     -1.03699995	     -6.50759889	      9.24858148	    -27.02189178	     -5.65453955	     14.50585207	     32.18927790	      9.43454237	      5.20448487	     -9.15114354
      4.97000000	    -10.17615606	     -6.92479496	      8.81597352	     -1.58927318	     -0.02199477	     -0.29069228	     32.77719511	      5.57232932	     -3.93044583	    -17.15131397	      7.49712312	      8.63400412	    -40.28949093	     -0.68002615	     -7.02986425	      8.39202534	    -28.15695019	     -7.13750581	     15.58465777	     32.96325943	      9.60522231	      5.54016034	     -9.07679313
      4.97500000	    -10.10093934	     -7.16047757	      8.65475159	     -1.58265001	     -0.02163917	     -0.28982423	     32.56188719	      6.12544846	     -3.24892701	    -17.58639913	      7.58607693	      7.97892130	    -41.08603370	     -0.36242587	     -7.53741814	      7.52437446	    -29.26564465	     -8.88940310	     16.51964306	     34.00214548	      9.72533387	      5.84543071	     -8.95426044
      4.98000000	     -9.98654884	     -7.38838133	      8.49307795	     -1.57596734	     -0.02120110	     -0.28904822	     32.26596527	      6.65235261	     -2.76666766	    -17.97861442	      7.93982211	      7.54856353	    -42.36381610	     -0.08915409	     -8.03869946	      6.69677271	    -30.32422389	    -10.94957884	     17.11687494	     35.36271890	      9.81340943	      6.16453713	     -8.80826213
      4.98500000	     -9.93496572	     -7.58392492	      8.35133013	     -1.56937184	     -0.02084614	     -0.28822217	     31.99194097	      7.13316350	     -2.25874734	    -18.28960855	      8.06005661	      7.12068182	    -42.65662966	      0.32780353	     -8.50604211	      5.97216488	    -31.57545163	    -12.64860590	     18.09200174	     35.47910823	      9.95383644	      6.41723491	     -8.72734884
